<?xml version="1.0" encoding="UTF-8" standalone="no"?>
<!-- Created with Inkscape (http://www.inkscape.org/) -->
<svg
   xmlns:svg="http://www.w3.org/2000/svg"
   xmlns="http://www.w3.org/2000/svg"
   version="1.0"
   width="42.519684"
   height="53.149605"
   id="svg2">
  <defs
     id="defs4" />
  <g
     id="layer2"
     style="display:none">
    <rect
       width="31.949493"
       height="34.973034"
       ry="0.21325016"
       x="5.0068707"
       y="9.2631512"
       id="rect3211"
       style="fill:none;fill-opacity:1;fill-rule:nonzero;stroke:#000000;stroke-width:0.07031591;stroke-linecap:butt;stroke-linejoin:miter;marker:none;marker-start:none;marker-mid:none;marker-end:none;stroke-miterlimit:4;stroke-dasharray:none;stroke-dashoffset:0;stroke-opacity:1;visibility:visible;display:inline;overflow:visible;enable-background:accumulate" />
    <rect
       width="42.519684"
       height="53.149605"
       ry="0.32408288"
       x="-3.1811524e-06"
       y="-1.6357421e-06"
       id="rect2383"
       style="fill:none;fill-opacity:1;fill-rule:nonzero;stroke:#000000;stroke-width:0.1;stroke-linecap:butt;stroke-linejoin:miter;marker:none;marker-start:none;marker-mid:none;marker-end:none;stroke-miterlimit:4;stroke-dasharray:none;stroke-dashoffset:0;stroke-opacity:1;visibility:visible;display:inline;overflow:visible;enable-background:accumulate" />
  </g>
  <g
     transform="translate(-119.56718,-225.15645)"
     id="layer1"
     style="display:inline">
    <path
       d="M 137.62723,234.3752 C 137.71074,234.3752 137.77969,234.43061 137.81473,234.5002 L 137.84598,234.5002 L 153.87723,244.65645 L 140.59598,252.2502 L 154.43973,260.4377 L 137.84598,269.3127 L 137.81473,269.3127 C 137.77969,269.38229 137.71074,269.4377 137.62723,269.4377 L 133.80291,269.319 L 134.03348,236.1877 L 133.93973,236.1252 L 137.15848,234.3752 L 137.62723,234.3752 z M 137.84598,238.6252 L 137.84598,249.8752 L 147.18973,244.53145 L 137.84598,238.6252 z M 137.84598,254.46895 L 137.84598,265.6252 L 147.75223,260.3127 L 137.84598,254.46895 z"
       id="path3365"
       style="opacity:1;fill:#000000;fill-opacity:1;fill-rule:nonzero;stroke:#000000;stroke-width:0.11321644;stroke-linecap:butt;stroke-linejoin:miter;marker:none;marker-start:none;marker-mid:none;marker-end:none;stroke-miterlimit:4;stroke-dasharray:none;stroke-dashoffset:0;stroke-opacity:1;visibility:visible;display:inline;overflow:visible;enable-background:accumulate" />
  </g>
</svg>
