<svg xmlns="http://www.w3.org/2000/svg" viewBox="2.25 0 13.5 24"><path fill="#000000" d="M13,13.042 L10,13.042 L10,20.042 C10,20.594 9.553,21.042 9,21.042 C8.447,21.042 8,20.594 8,20.042 L8,13.042 L5,13.042 C4.447,13.042 4,12.594 4,12.042 C4,11.49 4.447,11.042 5,11.042 L8,11.042 L8,8.042 C8,7.49 8.447,7.042 9,7.042 C9.553,7.042 10,7.49 10,8.042 L10,11.042 L13,11.042 C13.553,11.042 14,11.49 14,12.042 C14,12.594 13.553,13.042 13,13.042 M3,2.042 L15.159,2.042 C14.963,2.693 14.963,3.391 15.159,4.042 L3,4.042 C2.448,4.042 2,3.593 2,3.042 C2,2.491 2.448,2.042 3,2.042 M17.988,4.981 C17.982,4.89 17.964,4.802 17.934,4.716 C17.923,4.684 17.915,4.652 17.901,4.622 C17.854,4.523 17.795,4.429 17.716,4.348 C17.712,4.343 17.709,4.338 17.705,4.333 L17.432,4.06 C16.871,3.499 16.871,2.585 17.431,2.024 L17.706,1.75 C17.993,1.464 18.079,1.034 17.924,0.66 C17.77,0.286 17.404,0.042 17,0.042 L3,0.042 C1.346,0.042 0,1.388 0,3.042 L0,23.042 C0,23.594 0.447,24.042 1,24.042 L17,24.042 C17.553,24.042 18,23.594 18,23.042 L18,5.042 C18,5.02 17.989,5.002 17.988,4.981"/></svg>
